<?xml version="1.0" encoding="utf-8"?>
<!-- Generator: Adobe Illustrator 17.0.0, SVG Export Plug-In . SVG Version: 6.00 Build 0)  -->
<!DOCTYPE svg PUBLIC "-//W3C//DTD SVG 1.1//EN" "http://www.w3.org/Graphics/SVG/1.1/DTD/svg11.dtd">
<svg version="1.1" id="Слой_1" xmlns="http://www.w3.org/2000/svg" xmlns:xlink="http://www.w3.org/1999/xlink" x="0px" y="0px"
	 width="41.405px" height="43.437px" viewBox="0 0 41.405 43.437" enable-background="new 0 0 41.405 43.437" xml:space="preserve">
<linearGradient id="SVGID_1_" gradientUnits="userSpaceOnUse" x1="15.0872" y1="16.2137" x2="15.0872" y2="19.8452">
	<stop  offset="0" style="stop-color:#5DBA47"/>
	<stop  offset="1" style="stop-color:#34B14A"/>
</linearGradient>
<path fill="url(#SVGID_1_)" d="M15.087,16.214c0.976,0,1.766,0.813,1.766,1.816c0,1.003-0.791,1.816-1.766,1.816
	s-1.766-0.813-1.766-1.816C13.321,17.027,14.112,16.214,15.087,16.214z"/>
<linearGradient id="SVGID_2_" gradientUnits="userSpaceOnUse" x1="26.3087" y1="23.5834" x2="26.3087" y2="27.2148">
	<stop  offset="0" style="stop-color:#5DBA47"/>
	<stop  offset="1" style="stop-color:#34B14A"/>
</linearGradient>
<path fill="url(#SVGID_2_)" d="M26.309,23.583c0.975,0,1.766,0.813,1.766,1.816c0,1.003-0.791,1.816-1.766,1.816
	c-0.976,0-1.767-0.813-1.767-1.816C24.542,24.396,25.333,23.583,26.309,23.583z"/>
<linearGradient id="SVGID_3_" gradientUnits="userSpaceOnUse" x1="20.7023" y1="-5.456968e-012" x2="20.7023" y2="43.4373">
	<stop  offset="0" style="stop-color:#5DBA47"/>
	<stop  offset="1" style="stop-color:#34B14A"/>
</linearGradient>
<path fill="url(#SVGID_3_)" d="M40.873,24.117l-0.641-0.899c-0.693-0.979-0.71-2.305-0.026-3.302l0.623-0.908
	c0.953-1.388,0.511-3.32-0.952-4.13l-0.952-0.525c-1.039-0.57-1.611-1.762-1.411-2.964l0.182-1.095
	c0.277-1.673-0.944-3.222-2.597-3.293l-1.082-0.045c-1.178-0.053-2.199-0.872-2.528-2.038l-0.303-1.068
	c-0.459-1.638-2.208-2.483-3.732-1.807L26.456,2.48c-1.082,0.481-2.346,0.196-3.134-0.712L22.603,0.94
	c-1.1-1.264-3.03-1.255-4.122,0.036l-0.71,0.837c-0.779,0.917-2.035,1.219-3.126,0.757l-1.004-0.427
	c-1.533-0.65-3.264,0.231-3.706,1.869L9.65,5.088C9.338,6.263,8.333,7.099,7.156,7.162L6.074,7.224
	C4.42,7.322,3.225,8.889,3.528,10.562l0.199,1.095c0.216,1.193-0.338,2.394-1.368,2.982l-0.944,0.543
	c-1.446,0.828-1.862,2.768-0.883,4.139l0.641,0.899c0.693,0.979,0.71,2.305,0.026,3.302l-0.623,0.908
	c-0.953,1.389-0.511,3.32,0.952,4.13l0.953,0.525c1.039,0.57,1.61,1.763,1.411,2.964L3.71,33.142
	c-0.277,1.673,0.944,3.222,2.598,3.293L7.39,36.48c1.178,0.053,2.199,0.872,2.528,2.038l0.303,1.068
	c0.459,1.638,2.208,2.483,3.732,1.807l0.996-0.436c1.082-0.481,2.346-0.196,3.134,0.712l0.719,0.828
	c1.108,1.264,3.039,1.255,4.122-0.036l0.71-0.837c0.779-0.917,2.035-1.219,3.126-0.756l1.004,0.427
	c1.533,0.65,3.264-0.232,3.706-1.869l0.286-1.077c0.312-1.175,1.316-2.012,2.494-2.074l1.082-0.062
	c1.654-0.098,2.849-1.664,2.546-3.338l-0.199-1.095c-0.217-1.193,0.338-2.394,1.368-2.982l0.944-0.543
	C41.435,27.437,41.851,25.497,40.873,24.117z M10.818,18.029c0-2.421,1.905-4.379,4.26-4.379c2.355,0,4.26,1.958,4.26,4.379
	c0,2.421-1.905,4.379-4.26,4.379C12.723,22.408,10.818,20.441,10.818,18.029z M15.901,29.324c-0.364,0.454-1.022,0.516-1.463,0.142
	l0,0c-0.442-0.374-0.502-1.05-0.139-1.504l11.178-13.84c0.364-0.454,1.022-0.516,1.463-0.142c0.442,0.374,0.502,1.05,0.138,1.504
	L15.901,29.324z M26.309,29.778c-2.355,0-4.26-1.958-4.26-4.379s1.905-4.379,4.26-4.379c2.355,0,4.26,1.958,4.26,4.379
	S28.664,29.778,26.309,29.778z"/>
</svg>
