<?xml version="1.0" encoding="utf-8"?>
<!-- Generator: Adobe Illustrator 17.0.0, SVG Export Plug-In . SVG Version: 6.00 Build 0)  -->
<!DOCTYPE svg PUBLIC "-//W3C//DTD SVG 1.1//EN" "http://www.w3.org/Graphics/SVG/1.1/DTD/svg11.dtd">
<svg version="1.1" id="Слой_1" xmlns="http://www.w3.org/2000/svg" xmlns:xlink="http://www.w3.org/1999/xlink" x="0px" y="0px"
	 width="46.25px" height="46.156px" viewBox="0 0 46.25 46.156" enable-background="new 0 0 46.25 46.156" xml:space="preserve">
<g id="Слой_2">
	<linearGradient id="SVGID_1_" gradientUnits="userSpaceOnUse" x1="23.1458" y1="0.0885" x2="23.1458" y2="46.0885">
		<stop  offset="0" style="stop-color:#F7941E"/>
		<stop  offset="1" style="stop-color:#F37421"/>
	</linearGradient>
	<circle fill="url(#SVGID_1_)" cx="23.146" cy="23.089" r="23"/>
</g>
<path fill="#FFFFFF" d="M34.261,21.215V18.77c0-0.928-0.74-1.675-1.661-1.675l-1.148-0.182l-1.967-2.986
	c-0.028-0.023-0.051-0.08-0.079-0.103c-0.305-0.41-0.791-0.695-1.356-0.695h-3.73v-1.041c0-0.527-0.389-0.956-0.87-0.956h-10.06
	c-0.481,0-0.87,0.43-0.87,0.956v6.538v3.547V22.4v0.981c0,0.54,0.435,0.951,0.944,0.951h1.356c0.305,1.083,1.277,1.853,2.452,1.853
	c1.175,0,2.147-0.798,2.452-1.853h3.091h5.261c0.306,1.083,1.277,1.853,2.453,1.853s2.147-0.798,2.453-1.853h1.175
	c0.537,0,0.944-0.438,0.944-0.951v-1.209C35.103,21.677,34.719,21.267,34.261,21.215z M17.274,24.897
	c-0.717,0-1.277-0.593-1.277-1.288c0-0.695,0.588-1.288,1.277-1.288c0.717,0,1.277,0.593,1.277,1.288
	C18.551,24.305,17.991,24.897,17.274,24.897z M26.07,17.011c-0.065,0-0.12-0.051-0.12-0.122v-2.366c0-0.065,0.051-0.121,0.12-0.121
	h2.027c0.042,0,0.079,0.019,0.097,0.051l1.578,2.366c0.051,0.079-0.005,0.186-0.097,0.186H26.07V17.011z M30.531,24.897
	c-0.717,0-1.277-0.593-1.277-1.288c0-0.695,0.588-1.288,1.277-1.288c0.717,0,1.277,0.593,1.277,1.288
	C31.808,24.305,31.221,24.897,30.531,24.897z"/>
</svg>
